<svg xmlns="http://www.w3.org/2000/svg" xmlns:xlink="http://www.w3.org/1999/xlink" viewBox="0 0 181.47 56.49"><defs><style>.cls-1{fill:#e8e8ea;}.cls-2{opacity:0.86;}.cls-3{fill:#fff;}.cls-4{fill:url(#Gradiente_sem_nome_2);}.cls-5{fill:url(#Gradiente_sem_nome_2-2);}.cls-6{fill:url(#Gradiente_sem_nome_3);}.cls-7{fill:url(#Gradiente_sem_nome_4);}.cls-8{fill:url(#Gradiente_sem_nome_12);}.cls-9{fill:url(#Gradiente_sem_nome_13);}.cls-10{fill:url(#Gradiente_sem_nome_13-2);}.cls-11{fill:url(#Gradiente_sem_nome_10);}.cls-12{fill:url(#Gradiente_sem_nome_13-3);}.cls-13{fill:url(#Gradiente_sem_nome_10-2);}.cls-14{fill:url(#Gradiente_sem_nome_12-2);}.cls-15{fill:url(#Gradiente_sem_nome_12-3);}.cls-16{fill:url(#Gradiente_sem_nome_13-4);}</style><linearGradient id="Gradiente_sem_nome_2" x1="34.91" y1="34.77" x2="43.58" y2="34.77" gradientTransform="matrix(1, 0, 0, -1, 0, 71.32)" gradientUnits="userSpaceOnUse"><stop offset="0" stop-color="#5f91dc"/><stop offset="1" stop-color="#91ffc8"/></linearGradient><linearGradient id="Gradiente_sem_nome_2-2" x1="24.12" y1="24.43" x2="43.38" y2="24.43" xlink:href="#Gradiente_sem_nome_2"/><linearGradient id="Gradiente_sem_nome_3" x1="15.15" y1="48.66" x2="38.79" y2="48.66" gradientTransform="matrix(1, 0, 0, -1, 0, 71.32)" gradientUnits="userSpaceOnUse"><stop offset="0" stop-color="#25b1f3"/><stop offset="1" stop-color="#a7ebff"/></linearGradient><linearGradient id="Gradiente_sem_nome_4" x1="2.03" y1="45.26" x2="32.5" y2="45.26" gradientTransform="matrix(1, 0, 0, -1, 0, 71.32)" gradientUnits="userSpaceOnUse"><stop offset="0" stop-color="#7ff0e6"/><stop offset="1" stop-color="#5f86d9"/></linearGradient><linearGradient id="Gradiente_sem_nome_12" x1="12.39" y1="35.1" x2="24.97" y2="35.1" gradientTransform="matrix(1, 0, 0, -1, 0, 71.32)" gradientUnits="userSpaceOnUse"><stop offset="0" stop-color="#5decf3"/><stop offset="1" stop-color="#5f7bd6"/></linearGradient><linearGradient id="Gradiente_sem_nome_13" x1="23.85" y1="22.41" x2="25.22" y2="22.41" gradientTransform="matrix(1, 0, 0, -1, 0, 71.32)" gradientUnits="userSpaceOnUse"><stop offset="0" stop-color="#5decf3"/><stop offset="1" stop-color="#5d9cb5"/></linearGradient><linearGradient id="Gradiente_sem_nome_13-2" x1="23.77" y1="17.97" x2="24.46" y2="17.97" xlink:href="#Gradiente_sem_nome_13"/><linearGradient id="Gradiente_sem_nome_10" x1="16.68" y1="18.34" x2="24.12" y2="18.34" gradientTransform="matrix(1, 0, 0, -1, 0, 71.32)" gradientUnits="userSpaceOnUse"><stop offset="0" stop-color="#5f86d9"/><stop offset="1" stop-color="#7ff0e6"/></linearGradient><linearGradient id="Gradiente_sem_nome_13-3" x1="23.25" y1="22.89" x2="24.82" y2="22.89" xlink:href="#Gradiente_sem_nome_13"/><linearGradient id="Gradiente_sem_nome_10-2" x1="0.35" y1="23.73" x2="23.85" y2="23.73" xlink:href="#Gradiente_sem_nome_10"/><linearGradient id="Gradiente_sem_nome_12-2" x1="9.35" y1="24.11" x2="10.97" y2="33.31" xlink:href="#Gradiente_sem_nome_12"/><linearGradient id="Gradiente_sem_nome_12-3" x1="0" y1="39.03" x2="12.42" y2="39.03" xlink:href="#Gradiente_sem_nome_12"/><linearGradient id="Gradiente_sem_nome_13-4" x1="0.11" y1="32.91" x2="0.76" y2="32.91" xlink:href="#Gradiente_sem_nome_13"/></defs><g id="Camada_2" data-name="Camada 2"><g id="Camada_1-2" data-name="Camada 1"><path class="cls-1" d="M86.62,0V55.9H84.21V45.2a17.43,17.43,0,0,1-6.67,8,18.41,18.41,0,0,1-10.21,2.9,19.09,19.09,0,0,1-9.72-2.52,18.22,18.22,0,0,1-6.89-7A20.68,20.68,0,0,1,48.2,36.31a20.71,20.71,0,0,1,2.52-10.25,18.22,18.22,0,0,1,6.89-7,19.09,19.09,0,0,1,9.72-2.52,18.39,18.39,0,0,1,10.13,2.86,17.35,17.35,0,0,1,6.67,7.91V0ZM76,51.64a15.84,15.84,0,0,0,6-6.21,18.64,18.64,0,0,0,2.18-9.12A18.54,18.54,0,0,0,82,27.23a15.9,15.9,0,0,0-6-6.18,17.57,17.57,0,0,0-17.1,0,15.9,15.9,0,0,0-6,6.18,18.43,18.43,0,0,0-2.18,9.08,18.78,18.78,0,0,0,2.18,9.12,15.84,15.84,0,0,0,6,6.21,17.57,17.57,0,0,0,17.1,0Z"/><g class="cls-2"><path class="cls-3" d="M86.62,0V55.9H84.21V45.2a17.43,17.43,0,0,1-6.67,8,18.41,18.41,0,0,1-10.21,2.9,19.09,19.09,0,0,1-9.72-2.52,18.22,18.22,0,0,1-6.89-7A20.68,20.68,0,0,1,48.2,36.31a20.71,20.71,0,0,1,2.52-10.25,18.22,18.22,0,0,1,6.89-7,19.09,19.09,0,0,1,9.72-2.52,18.39,18.39,0,0,1,10.13,2.86,17.35,17.35,0,0,1,6.67,7.91V0ZM76,51.64a15.84,15.84,0,0,0,6-6.21,18.64,18.64,0,0,0,2.18-9.12A18.54,18.54,0,0,0,82,27.23a15.9,15.9,0,0,0-6-6.18,17.57,17.57,0,0,0-17.1,0,15.9,15.9,0,0,0-6,6.18,18.43,18.43,0,0,0-2.18,9.08,18.78,18.78,0,0,0,2.18,9.12,15.84,15.84,0,0,0,6,6.21,17.57,17.57,0,0,0,17.1,0Z"/></g><path class="cls-1" d="M136.79,16.79v39.1h-2.41V46.4a14.69,14.69,0,0,1-5.8,7.16,17.18,17.18,0,0,1-9.49,2.56q-7.61,0-11.9-4.22T102.9,39.77v-23h2.49V39.62q0,6.93,3.58,10.58t10.21,3.65q7,0,11.07-4.33t4.07-11.64V16.79Z"/><g class="cls-2"><path class="cls-3" d="M136.79,16.79v39.1h-2.41V46.4a14.69,14.69,0,0,1-5.8,7.16,17.18,17.18,0,0,1-9.49,2.56q-7.61,0-11.9-4.22T102.9,39.77v-23h2.49V39.62q0,6.93,3.58,10.58t10.21,3.65q7,0,11.07-4.33t4.07-11.64V16.79Z"/></g><path class="cls-1" d="M178.38,55.89,164.22,37.51,150.06,55.89h-2.94L162.79,35.7,148,16.79h2.94l13.33,17.1,13.26-17.1h2.86L165.65,35.7l15.82,20.19Z"/><g class="cls-2"><path class="cls-3" d="M178.38,55.89,164.22,37.51,150.06,55.89h-2.94L162.79,35.7,148,16.79h2.94l13.33,17.1,13.26-17.1h2.86L165.65,35.7l15.82,20.19Z"/></g><path class="cls-4" d="M36,34.46l7.55,1.47a14.89,14.89,0,0,1-.2,2,16.58,16.58,0,0,0-2.84-.24,17.14,17.14,0,0,0-5.63.94A14.94,14.94,0,0,0,36,34.46Z"/><path class="cls-5" d="M43.38,37.93A17.17,17.17,0,0,1,41.18,44a24.75,24.75,0,0,1-6.36,7,24.82,24.82,0,0,1-10.53,5,16,16,0,0,0,.17-2.31,15.76,15.76,0,0,0-.34-3.24,15.84,15.84,0,0,1,1.1-3.26,16,16,0,0,0,4.88-2.66,15.55,15.55,0,0,0,4.81-6,17.14,17.14,0,0,1,5.63-.94A16.58,16.58,0,0,1,43.38,37.93Z"/><path class="cls-6" d="M38.79,25.62l-6.29,4.9A16.53,16.53,0,0,0,15.8,15.74c-.22,0-.44,0-.65,0a18.79,18.79,0,0,1,13.31.58,22.1,22.1,0,0,1,8.74,7C37.6,23.84,38.13,24.61,38.79,25.62Z"/><path class="cls-7" d="M32.5,30.52,25,36.39A15.88,15.88,0,0,0,21.7,31L28,26.1a11,11,0,0,0-15-.73l-.58.47a17.73,17.73,0,0,0-3.29-.31A17,17,0,0,0,2,27.06a21.79,21.79,0,0,1,6.35-7.64,22,22,0,0,1,6.77-3.66c.21,0,.43,0,.65,0A16.53,16.53,0,0,1,32.5,30.52Z"/><path class="cls-8" d="M25,36.39l-6.47,5a16.58,16.58,0,0,0-6.11-3.17L21.7,31A15.88,15.88,0,0,1,25,36.39Z"/><path class="cls-9" d="M24.82,47.41l.4-.13a15.84,15.84,0,0,0-1.1,3.26,10.65,10.65,0,0,0-.27-1.08A15.36,15.36,0,0,0,24.82,47.41Z"/><path class="cls-10" d="M24.46,53.78a16,16,0,0,1-.17,2.31l-.3.06h0a15.81,15.81,0,0,1,.18-5.62A15.76,15.76,0,0,1,24.46,53.78Z"/><path class="cls-11" d="M23.85,49.46a10.65,10.65,0,0,1,.27,1.08,15.81,15.81,0,0,0-.18,5.62,19.25,19.25,0,0,1-7.26,0A16.58,16.58,0,0,0,23.85,49.46Z"/><path class="cls-12" d="M24.82,47.41a15.36,15.36,0,0,1-1,2.05,12.7,12.7,0,0,0-.6-1.7A12.25,12.25,0,0,0,24.82,47.41Z"/><path class="cls-13" d="M23.25,47.76a12.7,12.7,0,0,1,.6,1.7,16.58,16.58,0,0,1-7.17,6.67,18.11,18.11,0,0,1-3.35-1,20.65,20.65,0,0,1-8.72-6.72A21.25,21.25,0,0,1,.35,39.24c.14-.06.27-.13.41-.18a16.85,16.85,0,0,0,15,9,17.43,17.43,0,0,0,3.49-.35,11.21,11.21,0,0,0,2.34.18A11.09,11.09,0,0,0,23.25,47.76Z"/><path class="cls-14" d="M18.5,41.43,13.89,45a11.18,11.18,0,0,0,5.4,2.71,17.43,17.43,0,0,1-3.49.35,16.85,16.85,0,0,1-15-9,17.16,17.16,0,0,1,6.93-1.45c.41,0,.82,0,1.22,0A13.25,13.25,0,0,0,10,40.13l2.4-1.87A16.58,16.58,0,0,1,18.5,41.43Z"/><path class="cls-15" d="M12.42,25.84a11.19,11.19,0,0,0-3.81,6.33,10.89,10.89,0,0,0,.3,5.49c-.4,0-.81,0-1.22,0A17.16,17.16,0,0,0,.76,39.06a13.92,13.92,0,0,1-.65-1.47,18.93,18.93,0,0,1,1.45-9.52c.15-.34.3-.68.47-1a17,17,0,0,1,7.1-1.53A17.73,17.73,0,0,1,12.42,25.84Z"/><path class="cls-16" d="M.76,39.06c-.14,0-.27.12-.41.18-.06-.27-.1-.54-.14-.81s-.08-.56-.1-.84A13.92,13.92,0,0,0,.76,39.06Z"/></g></g></svg>